<svg width="64" height="64" viewBox="0 0 64 64" fill="none" xmlns="http://www.w3.org/2000/svg">
<g clip-path="url(#clip0_672_5479)">
<rect width="64" height="64" fill="url(#paint0_linear_672_5479)"/>
<path d="M20.7502 28.2288C22.3826 29.8945 23.9728 31.9566 24.3426 34.1338C25.0079 30.402 30.0286 25.3223 33.7762 24.6789C30.0531 24.0755 24.9342 18.9542 24.3428 15.2162C23.6725 18.9044 18.6167 24.0297 14.909 24.6734C17.0699 25.046 19.0912 26.6078 20.7502 28.2288Z" fill="white"/>
<path d="M50.4705 17.5461C46.6178 12.9435 39.4555 14.3491 33.9234 16.5988C42.703 13.8245 50.754 17.475 46.5528 27.9102C44.4717 33.0405 39.2369 38.288 34.2203 41.2544C31.5714 42.9669 28.7378 44.4092 25.6501 44.841C20.8997 45.4929 18.0528 43.0403 19.261 38.1396C19.5657 36.9428 20.1204 35.7347 20.6711 34.5593C19.7645 32.4077 17.814 30.2065 15.7206 29.5949C14.5922 31.2926 13.7712 32.8295 12.9358 35.2059C11.0453 40.313 11.6628 47.8122 18.1228 49.4348C29.9446 51.7902 45.9367 39.2243 50.4886 28.7524C52.4367 24.3391 52.576 20.2598 50.4705 17.5461Z" fill="white"/>
</g>
<defs>
<linearGradient id="paint0_linear_672_5479" x1="35.5" y1="28.5" x2="-7.48853e-06" y2="64" gradientUnits="userSpaceOnUse">
<stop stop-color="#D71920"/>
<stop offset="1" stop-color="#4D1210"/>
</linearGradient>
<clipPath id="clip0_672_5479">
<rect width="64" height="64" rx="12" fill="white"/>
</clipPath>
</defs>
</svg>
