<svg width="120" height="24" viewBox="0 0 120 24" fill="none" xmlns="http://www.w3.org/2000/svg">
<g clip-path="url(#clip0_883_58)">
<path d="M31.8187 3.58109V6.73022H36.9232V20.3431H40.3276V6.73022H45.454V3.58109H31.8187Z" fill="black"/>
<path d="M51.7366 7.66468C50.1406 7.56835 48.5064 7.87325 47.5768 9.35806L47.3655 7.86637H44.3877V20.3431H47.6964V14.4961C47.6964 13.6594 47.8419 12.9725 48.1329 12.4353C48.9363 10.9574 50.5468 10.8286 52.1153 10.8737V7.67667C52.0355 7.67667 51.91 7.67268 51.7366 7.66468Z" fill="black"/>
<path d="M64.2797 11.4289C63.7949 9.94462 62.7843 8.75345 61.3477 8.12598C59.6901 7.3796 57.0899 7.52575 55.5814 8.48143C53.5959 9.68012 52.678 11.7751 52.6873 14.1646C52.6845 16.5059 53.5418 18.5926 55.5236 19.728C57.0535 20.6324 59.5544 20.7456 61.3357 20.0954C62.9796 19.5092 64.1296 18.2636 64.5029 16.485H61.2421C60.7287 17.8361 58.3795 17.9552 57.3075 17.3477C56.4864 16.8937 56.0679 16.027 55.9721 15.1112H64.5029C64.6035 14.6887 64.6182 14.2922 64.6205 13.8551C64.6364 12.9884 64.5228 12.1797 64.2797 11.4289ZM56.0438 12.7907C56.1486 11.3249 57.2451 10.312 58.7845 10.3525C60.3126 10.3041 61.4035 11.3251 61.4553 12.7907H56.0438Z" fill="black"/>
<path d="M77.1038 10.5302C76.8128 9.6536 76.3324 8.95468 75.6627 8.43349C73.959 7.14822 70.4768 7.43118 69.0334 9.31013L68.868 7.86637H65.7726V20.3431H69.0813V14.1866C69.0813 13.5396 69.1829 12.9485 69.3882 12.4113C69.5935 11.8762 69.9084 11.4488 70.333 11.1333C70.9894 10.6028 72.3788 10.484 73.0995 10.9436C73.3985 11.1333 73.6297 11.3869 73.7951 11.7024C74.1401 12.3444 74.2273 13.1522 74.2336 13.8791V20.3431H77.5423V13.4537C77.5423 12.3814 77.3948 11.4049 77.1038 10.5302Z" fill="black"/>
<path d="M87.9567 3.58101V9.02659C87.1174 8.04276 85.7433 7.6679 84.4826 7.65267C80.6449 7.57899 78.5861 10.4676 78.6227 14.0928C78.5908 17.531 80.4848 20.5917 84.2235 20.5088C85.6464 20.5056 87.1035 20.0839 88.0045 18.9472L88.0504 20.3431H91.2654V3.58101H87.9567ZM87.6258 15.7502C87.1344 16.8735 86.2001 17.546 84.8852 17.5254C83.4892 17.5649 82.4034 16.7503 82.0848 15.4306C81.8429 14.4919 81.8889 13.374 82.2024 12.4713C82.6172 11.3056 83.5639 10.6659 84.8852 10.684C86.2024 10.6703 87.1491 11.2403 87.6378 12.3754C88.062 13.3829 88.0687 14.7348 87.6258 15.7502Z" fill="black"/>
<path d="M110.426 3.58101V20.3431H113.805V3.58101H110.426Z" fill="black"/>
<path d="M105.601 20.3431H109.241L102.789 3.57901H99.0095L92.4858 20.3431H96.1254L97.3508 16.9553C99.6306 17.5055 102.099 17.5064 104.379 16.9529L105.601 20.3431ZM98.3873 14.0518L98.3877 14.0508L100.899 7.17945L103.363 14.0475C101.539 14.3618 100.453 14.4009 98.3873 14.0518Z" fill="black"/>
<path d="M116.575 3.78987H115.901V3.58101H117.474V3.78987H116.8V5.58377H116.575V3.78987Z" fill="black"/>
<path d="M117.887 3.58101H118.115L118.843 4.67385L119.571 3.58101H119.8V5.58377H119.574V3.96147L118.846 5.03442H118.835L118.106 3.9644V5.58377H117.887V3.58101Z" fill="black"/>
<path d="M6.96222 9.35451C8.07448 10.4895 9.15806 11.8946 9.40997 13.3781C9.86335 10.8353 13.2843 7.3741 15.8378 6.93567C13.301 6.52454 9.81308 3.03499 9.41016 0.487976C8.95338 3.00104 5.5085 6.49335 2.9821 6.93194C4.4545 7.18582 5.83181 8.25001 6.96222 9.35451Z" fill="#D71920"/>
<path d="M27.213 2.07553C24.5879 -1.06058 19.7076 -0.10279 15.9381 1.43011C21.9204 -0.460249 27.4062 2.02712 24.5436 9.13743C23.1255 12.6331 19.5587 16.2087 16.1405 18.2299C14.3356 19.3968 12.4048 20.3795 10.3009 20.6737C7.06406 21.1179 5.12422 19.4468 5.94753 16.1075C6.15515 15.2921 6.5331 14.4689 6.90833 13.668C6.2906 12.2019 4.96151 10.7021 3.53516 10.2853C2.76628 11.4421 2.20686 12.4894 1.63765 14.1086C0.349495 17.5885 0.770259 22.6983 5.17193 23.8039C13.2271 25.4088 24.1238 16.8467 27.2253 9.71133C28.5528 6.70416 28.6477 3.92461 27.213 2.07553Z" fill="#D71920"/>
</g>
<defs>
<clipPath id="clip0_883_58">
<rect width="118.8" height="24" fill="white" transform="translate(1)"/>
</clipPath>
</defs>
</svg>
